<svg width="228" height="303" viewBox="0 0 228 303" fill="none" xmlns="http://www.w3.org/2000/svg">
<path opacity="0.5" d="M220.071 40.2643C226.152 30.2831 223.03 17.1098 212.302 12.4731C192.952 4.11052 172 -0.16727 150.767 0.00500281C129.534 0.177276 108.654 4.79448 89.4424 13.47C78.7906 18.2801 75.883 31.5023 82.1248 41.3835C88.3667 51.2647 101.4 53.9949 112.295 49.7638C124.622 44.9762 137.77 42.4361 151.11 42.3279C164.451 42.2197 177.638 44.546 190.041 49.133C201.003 53.1868 213.99 50.2455 220.071 40.2643Z" fill="#2C858B"/>
<path d="M67.8658 49.9159C60.9414 41.5142 48.4053 40.2383 40.9697 48.1911C30.0733 59.8456 21.0511 73.1738 14.2677 87.7053C7.48424 102.237 3.06083 117.712 1.12404 133.549C-0.197601 144.356 8.83059 153.146 19.7177 153.059C30.6048 152.972 39.1841 144.011 40.9951 133.275C42.6757 123.312 45.6948 113.592 49.9937 104.383C54.2926 95.1734 59.8055 86.6168 66.3634 78.931C73.4302 70.6487 74.7902 58.3176 67.8658 49.9159Z" fill="#45B3BA"/>
<path d="M120.784 120.123V85.8349H122.98V120.123H120.784ZM127.119 96.8044C126.994 95.6347 126.467 94.7239 125.538 94.072C124.619 93.4202 123.422 93.0943 121.949 93.0943C120.913 93.0943 120.025 93.2506 119.284 93.5631C118.542 93.8756 117.975 94.2997 117.583 94.8355C117.19 95.3712 116.989 95.9829 116.98 96.6704C116.98 97.2419 117.109 97.7375 117.368 98.1571C117.636 98.5768 117.998 98.934 118.453 99.2286C118.908 99.5144 119.413 99.7555 119.967 99.9519C120.52 100.148 121.078 100.314 121.641 100.447L124.212 101.09C125.248 101.331 126.244 101.657 127.199 102.068C128.164 102.479 129.025 102.997 129.784 103.622C130.552 104.247 131.159 105.001 131.606 105.885C132.052 106.769 132.275 107.805 132.275 108.993C132.275 110.6 131.865 112.015 131.043 113.239C130.222 114.453 129.034 115.404 127.48 116.091C125.936 116.77 124.065 117.109 121.869 117.109C119.734 117.109 117.882 116.779 116.31 116.118C114.748 115.457 113.524 114.493 112.64 113.225C111.765 111.957 111.292 110.412 111.22 108.591H116.109C116.181 109.546 116.475 110.341 116.993 110.975C117.511 111.609 118.185 112.082 119.016 112.395C119.855 112.707 120.793 112.863 121.828 112.863C122.909 112.863 123.855 112.703 124.668 112.381C125.489 112.051 126.132 111.596 126.597 111.015C127.061 110.426 127.297 109.738 127.306 108.953C127.297 108.238 127.088 107.649 126.677 107.185C126.266 106.711 125.69 106.318 124.949 106.006C124.217 105.684 123.36 105.399 122.377 105.149L119.257 104.345C116.998 103.765 115.212 102.885 113.899 101.706C112.596 100.519 111.944 98.9429 111.944 96.9785C111.944 95.3623 112.381 93.947 113.256 92.7327C114.14 91.5183 115.341 90.5763 116.859 89.9066C118.377 89.228 120.096 88.8887 122.016 88.8887C123.962 88.8887 125.668 89.228 127.132 89.9066C128.606 90.5763 129.762 91.5094 130.601 92.7059C131.441 93.8935 131.874 95.2596 131.9 96.8044H127.119ZM145.22 117.069C143.434 117.069 141.835 116.734 140.425 116.065C139.014 115.386 137.893 114.457 137.063 113.279C136.241 112.1 135.804 110.752 135.75 109.234H140.572C140.661 110.359 141.148 111.279 142.032 111.993C142.916 112.698 143.978 113.051 145.22 113.051C146.193 113.051 147.059 112.828 147.818 112.381C148.577 111.935 149.175 111.314 149.613 110.52C150.05 109.725 150.265 108.819 150.256 107.801C150.265 106.765 150.046 105.845 149.599 105.042C149.153 104.238 148.541 103.608 147.764 103.153C146.988 102.689 146.095 102.457 145.086 102.457C144.264 102.448 143.456 102.599 142.661 102.912C141.867 103.224 141.237 103.635 140.773 104.144L136.286 103.407L137.719 89.2637H153.631V93.4158H141.831L141.041 100.689H141.201C141.71 100.09 142.429 99.5947 143.358 99.2019C144.286 98.8 145.304 98.5991 146.412 98.5991C148.072 98.5991 149.555 98.992 150.858 99.7778C152.162 100.555 153.189 101.626 153.939 102.992C154.689 104.358 155.064 105.921 155.064 107.68C155.064 109.493 154.644 111.109 153.805 112.529C152.975 113.939 151.818 115.051 150.336 115.864C148.863 116.667 147.157 117.069 145.22 117.069ZM158.301 111.604V107.653L169.94 89.2637H173.235V94.8891H171.226L163.391 107.305V107.519H179.637V111.604H158.301ZM171.387 116.694V110.399L171.44 108.631V89.2637H176.128V116.694H171.387ZM184.167 116.694L195.833 93.6033V93.4158H182.292V89.2637H200.976V93.5095L189.323 116.694H184.167ZM214 117.069C212.688 117.06 211.406 116.832 210.156 116.386C208.906 115.931 207.781 115.194 206.781 114.176C205.781 113.149 204.986 111.788 204.397 110.091C203.808 108.386 203.518 106.274 203.526 103.756C203.526 101.407 203.776 99.3135 204.277 97.4741C204.777 95.6347 205.495 94.081 206.433 92.813C207.37 91.5362 208.5 90.5629 209.822 89.8932C211.152 89.2235 212.639 88.8887 214.282 88.8887C216.005 88.8887 217.532 89.228 218.862 89.9066C220.202 90.5852 221.282 91.5138 222.104 92.6925C222.925 93.8622 223.434 95.1837 223.63 96.657H218.742C218.492 95.6034 217.978 94.7641 217.201 94.139C216.434 93.505 215.46 93.1881 214.282 93.1881C212.38 93.1881 210.915 94.014 209.888 95.6659C208.871 97.3178 208.357 99.5858 208.348 102.47H208.536C208.973 101.684 209.54 101.01 210.237 100.447C210.933 99.8849 211.719 99.4519 212.594 99.1483C213.478 98.8358 214.411 98.6795 215.393 98.6795C217.001 98.6795 218.443 99.0635 219.72 99.8314C221.005 100.599 222.023 101.657 222.773 103.006C223.523 104.345 223.894 105.881 223.885 107.613C223.894 109.417 223.483 111.037 222.653 112.475C221.822 113.904 220.666 115.029 219.184 115.85C217.702 116.672 215.974 117.078 214 117.069ZM213.974 113.051C214.947 113.051 215.817 112.814 216.585 112.341C217.353 111.868 217.96 111.229 218.407 110.426C218.853 109.622 219.072 108.72 219.063 107.72C219.072 106.738 218.858 105.85 218.42 105.055C217.992 104.26 217.398 103.631 216.639 103.166C215.88 102.702 215.014 102.47 214.041 102.47C213.317 102.47 212.643 102.608 212.018 102.885C211.393 103.162 210.848 103.546 210.384 104.037C209.92 104.519 209.554 105.082 209.286 105.725C209.027 106.359 208.893 107.037 208.884 107.76C208.893 108.716 209.116 109.595 209.554 110.399C209.991 111.203 210.594 111.846 211.362 112.328C212.13 112.81 213 113.051 213.974 113.051Z" fill="white"/>
<path d="M109.398 145.742C109.338 145.23 109.092 144.832 108.66 144.549C108.228 144.266 107.699 144.124 107.072 144.124C106.613 144.124 106.212 144.198 105.868 144.346C105.528 144.495 105.261 144.699 105.069 144.958C104.88 145.218 104.786 145.513 104.786 145.844C104.786 146.12 104.852 146.358 104.983 146.557C105.118 146.752 105.29 146.916 105.499 147.047C105.708 147.175 105.927 147.282 106.157 147.366C106.386 147.447 106.597 147.513 106.789 147.563L107.841 147.846C108.11 147.917 108.41 148.015 108.741 148.14C109.075 148.264 109.393 148.435 109.697 148.65C110.004 148.863 110.256 149.136 110.455 149.47C110.654 149.804 110.754 150.213 110.754 150.699C110.754 151.258 110.607 151.764 110.314 152.216C110.024 152.668 109.599 153.027 109.039 153.293C108.483 153.56 107.807 153.693 107.011 153.693C106.269 153.693 105.627 153.573 105.084 153.334C104.545 153.094 104.12 152.761 103.81 152.332C103.503 151.904 103.329 151.407 103.289 150.84H104.584C104.617 151.231 104.749 151.555 104.978 151.811C105.211 152.064 105.504 152.253 105.858 152.378C106.216 152.499 106.6 152.56 107.011 152.56C107.49 152.56 107.92 152.482 108.301 152.327C108.682 152.169 108.984 151.95 109.206 151.67C109.429 151.387 109.54 151.056 109.54 150.679C109.54 150.335 109.444 150.055 109.252 149.839C109.06 149.623 108.807 149.448 108.493 149.313C108.18 149.178 107.841 149.06 107.477 148.959L106.202 148.595C105.393 148.362 104.752 148.03 104.28 147.598C103.808 147.167 103.572 146.602 103.572 145.904C103.572 145.324 103.729 144.819 104.042 144.387C104.359 143.952 104.784 143.615 105.317 143.375C105.853 143.133 106.452 143.011 107.112 143.011C107.78 143.011 108.373 143.131 108.893 143.37C109.412 143.606 109.823 143.93 110.127 144.341C110.434 144.753 110.595 145.22 110.612 145.742H109.398ZM112.369 156.424V145.742H113.522V146.976H113.664C113.752 146.842 113.873 146.67 114.028 146.461C114.187 146.248 114.413 146.059 114.706 145.894C115.003 145.726 115.404 145.641 115.91 145.641C116.564 145.641 117.14 145.805 117.639 146.132C118.138 146.459 118.528 146.922 118.808 147.523C119.087 148.123 119.227 148.831 119.227 149.647C119.227 150.469 119.087 151.183 118.808 151.786C118.528 152.386 118.14 152.852 117.644 153.182C117.149 153.509 116.577 153.673 115.93 153.673C115.431 153.673 115.031 153.59 114.731 153.425C114.431 153.256 114.2 153.066 114.038 152.853C113.876 152.637 113.752 152.459 113.664 152.317H113.563V156.424H112.369ZM113.543 149.627C113.543 150.213 113.629 150.731 113.801 151.179C113.973 151.624 114.224 151.973 114.554 152.226C114.885 152.476 115.289 152.6 115.768 152.6C116.267 152.6 116.683 152.469 117.017 152.206C117.354 151.94 117.607 151.582 117.776 151.134C117.948 150.682 118.034 150.18 118.034 149.627C118.034 149.08 117.949 148.588 117.781 148.15C117.616 147.708 117.365 147.359 117.027 147.103C116.694 146.843 116.274 146.713 115.768 146.713C115.282 146.713 114.875 146.836 114.544 147.083C114.214 147.325 113.964 147.666 113.796 148.104C113.627 148.539 113.543 149.047 113.543 149.627ZM124.02 153.673C123.272 153.673 122.626 153.507 122.083 153.177C121.544 152.843 121.127 152.378 120.834 151.781C120.544 151.181 120.399 150.483 120.399 149.687C120.399 148.892 120.544 148.19 120.834 147.583C121.127 146.973 121.535 146.498 122.058 146.157C122.584 145.813 123.198 145.641 123.899 145.641C124.304 145.641 124.703 145.709 125.098 145.844C125.492 145.978 125.851 146.198 126.175 146.501C126.498 146.801 126.756 147.199 126.949 147.695C127.141 148.19 127.237 148.8 127.237 149.525V150.031H121.249V148.999H126.023C126.023 148.561 125.935 148.17 125.76 147.826C125.588 147.482 125.342 147.211 125.022 147.012C124.705 146.813 124.33 146.713 123.899 146.713C123.424 146.713 123.012 146.831 122.665 147.067C122.321 147.3 122.056 147.604 121.871 147.978C121.685 148.352 121.593 148.753 121.593 149.181V149.869C121.593 150.456 121.694 150.953 121.896 151.361C122.102 151.766 122.387 152.074 122.751 152.287C123.115 152.496 123.538 152.6 124.02 152.6C124.334 152.6 124.617 152.557 124.87 152.469C125.126 152.378 125.347 152.243 125.532 152.064C125.718 151.882 125.861 151.656 125.962 151.387L127.116 151.71C126.994 152.101 126.79 152.445 126.504 152.742C126.217 153.035 125.863 153.265 125.441 153.43C125.02 153.592 124.546 153.673 124.02 153.673ZM129.961 148.838V153.511H128.768V145.742H129.921V146.956H130.022C130.204 146.562 130.481 146.245 130.851 146.005C131.222 145.763 131.701 145.641 132.288 145.641C132.814 145.641 133.274 145.749 133.668 145.965C134.063 146.177 134.37 146.501 134.589 146.936C134.808 147.368 134.918 147.914 134.918 148.575V153.511H133.724V148.656C133.724 148.045 133.566 147.57 133.249 147.229C132.932 146.885 132.497 146.713 131.944 146.713C131.563 146.713 131.222 146.796 130.922 146.961C130.626 147.126 130.391 147.368 130.219 147.684C130.047 148.001 129.961 148.386 129.961 148.838ZM139.747 153.673C139.1 153.673 138.528 153.509 138.033 153.182C137.537 152.852 137.149 152.386 136.87 151.786C136.59 151.183 136.45 150.469 136.45 149.647C136.45 148.831 136.59 148.123 136.87 147.523C137.149 146.922 137.539 146.459 138.038 146.132C138.537 145.805 139.113 145.641 139.767 145.641C140.273 145.641 140.673 145.726 140.966 145.894C141.263 146.059 141.489 146.248 141.644 146.461C141.802 146.67 141.925 146.842 142.013 146.976H142.114V143.153H143.308V153.511H142.155V152.317H142.013C141.925 152.459 141.801 152.637 141.639 152.853C141.477 153.066 141.246 153.256 140.946 153.425C140.646 153.59 140.246 153.673 139.747 153.673ZM139.909 152.6C140.388 152.6 140.792 152.476 141.123 152.226C141.453 151.973 141.705 151.624 141.876 151.179C142.048 150.731 142.134 150.213 142.134 149.627C142.134 149.047 142.05 148.539 141.882 148.104C141.713 147.666 141.463 147.325 141.133 147.083C140.803 146.836 140.395 146.713 139.909 146.713C139.403 146.713 138.982 146.843 138.645 147.103C138.311 147.359 138.06 147.708 137.891 148.15C137.726 148.588 137.643 149.08 137.643 149.627C137.643 150.18 137.728 150.682 137.896 151.134C138.068 151.582 138.321 151.94 138.655 152.206C138.992 152.469 139.41 152.6 139.909 152.6ZM145.375 153.511V145.742H146.568V153.511H145.375ZM145.982 144.448C145.749 144.448 145.548 144.368 145.38 144.21C145.215 144.051 145.132 143.861 145.132 143.638C145.132 143.416 145.215 143.225 145.38 143.067C145.548 142.908 145.749 142.829 145.982 142.829C146.214 142.829 146.413 142.908 146.578 143.067C146.747 143.225 146.831 143.416 146.831 143.638C146.831 143.861 146.747 144.051 146.578 144.21C146.413 144.368 146.214 144.448 145.982 144.448ZM149.663 148.838V153.511H148.47V145.742H149.623V146.956H149.724C149.906 146.562 150.182 146.245 150.553 146.005C150.924 145.763 151.403 145.641 151.99 145.641C152.516 145.641 152.976 145.749 153.37 145.965C153.765 146.177 154.072 146.501 154.291 146.936C154.51 147.368 154.619 147.914 154.619 148.575V153.511H153.426V148.656C153.426 148.045 153.267 147.57 152.951 147.229C152.634 146.885 152.199 146.713 151.646 146.713C151.265 146.713 150.924 146.796 150.624 146.961C150.327 147.126 150.093 147.368 149.921 147.684C149.749 148.001 149.663 148.386 149.663 148.838ZM159.651 156.586C159.075 156.586 158.579 156.512 158.164 156.363C157.75 156.218 157.404 156.026 157.128 155.787C156.855 155.551 156.637 155.298 156.475 155.028L157.426 154.36C157.534 154.502 157.671 154.664 157.836 154.846C158.001 155.031 158.227 155.192 158.513 155.326C158.803 155.465 159.183 155.534 159.651 155.534C160.279 155.534 160.796 155.382 161.204 155.079C161.612 154.775 161.816 154.3 161.816 153.652V152.074H161.715C161.627 152.216 161.502 152.391 161.341 152.6C161.182 152.806 160.953 152.99 160.653 153.152C160.356 153.31 159.955 153.389 159.449 153.389C158.822 153.389 158.259 153.241 157.76 152.944C157.264 152.648 156.871 152.216 156.581 151.65C156.295 151.083 156.152 150.395 156.152 149.586C156.152 148.79 156.292 148.097 156.571 147.507C156.851 146.914 157.241 146.455 157.74 146.132C158.239 145.805 158.815 145.641 159.469 145.641C159.975 145.641 160.376 145.726 160.673 145.894C160.973 146.059 161.202 146.248 161.361 146.461C161.523 146.67 161.647 146.842 161.735 146.976H161.856V145.742H163.01V153.733C163.01 154.401 162.858 154.944 162.554 155.362C162.254 155.783 161.85 156.092 161.341 156.287C160.835 156.486 160.272 156.586 159.651 156.586ZM159.611 152.317C160.09 152.317 160.494 152.208 160.825 151.988C161.155 151.769 161.406 151.454 161.578 151.043C161.75 150.631 161.836 150.139 161.836 149.566C161.836 149.006 161.752 148.512 161.583 148.084C161.415 147.656 161.165 147.32 160.835 147.078C160.504 146.835 160.096 146.713 159.611 146.713C159.105 146.713 158.684 146.842 158.347 147.098C158.013 147.354 157.762 147.698 157.593 148.13C157.428 148.561 157.345 149.04 157.345 149.566C157.345 150.105 157.429 150.582 157.598 150.997C157.77 151.408 158.023 151.732 158.357 151.968C158.694 152.201 159.112 152.317 159.611 152.317ZM168.226 144.266V143.153H175.994V144.266H172.737V153.511H171.483V144.266H168.226ZM178.677 148.838V153.511H177.483V143.153H178.677V146.956H178.778C178.96 146.555 179.233 146.236 179.597 146C179.965 145.761 180.454 145.641 181.064 145.641C181.593 145.641 182.057 145.747 182.455 145.96C182.853 146.169 183.161 146.491 183.38 146.926C183.603 147.357 183.714 147.907 183.714 148.575V153.511H182.521V148.656C182.521 148.038 182.36 147.561 182.04 147.224C181.723 146.884 181.283 146.713 180.72 146.713C180.329 146.713 179.978 146.796 179.668 146.961C179.361 147.126 179.118 147.368 178.94 147.684C178.764 148.001 178.677 148.386 178.677 148.838ZM185.613 153.511V145.742H186.806V153.511H185.613ZM186.22 144.448C185.987 144.448 185.786 144.368 185.618 144.21C185.453 144.051 185.37 143.861 185.37 143.638C185.37 143.416 185.453 143.225 185.618 143.067C185.786 142.908 185.987 142.829 186.22 142.829C186.452 142.829 186.651 142.908 186.817 143.067C186.985 143.225 187.069 143.416 187.069 143.638C187.069 143.861 186.985 144.051 186.817 144.21C186.651 144.368 186.452 144.448 186.22 144.448ZM194.21 147.482L193.138 147.786C193.071 147.607 192.971 147.433 192.84 147.265C192.712 147.093 192.536 146.951 192.314 146.84C192.091 146.729 191.806 146.673 191.459 146.673C190.984 146.673 190.587 146.783 190.27 147.002C189.957 147.217 189.8 147.492 189.8 147.826C189.8 148.123 189.908 148.357 190.124 148.529C190.34 148.701 190.677 148.844 191.135 148.959L192.288 149.242C192.983 149.411 193.501 149.669 193.841 150.016C194.182 150.36 194.352 150.803 194.352 151.346C194.352 151.791 194.224 152.189 193.968 152.54C193.715 152.89 193.361 153.167 192.905 153.369C192.45 153.571 191.921 153.673 191.317 153.673C190.525 153.673 189.869 153.501 189.35 153.157C188.831 152.813 188.502 152.31 188.364 151.65L189.497 151.366C189.605 151.784 189.809 152.098 190.109 152.307C190.412 152.516 190.808 152.621 191.297 152.621C191.853 152.621 192.295 152.503 192.622 152.267C192.953 152.027 193.118 151.741 193.118 151.407C193.118 151.137 193.023 150.911 192.835 150.729C192.646 150.544 192.356 150.405 191.965 150.314L190.67 150.011C189.959 149.842 189.436 149.581 189.102 149.227C188.772 148.87 188.607 148.423 188.607 147.887C188.607 147.448 188.73 147.061 188.976 146.724C189.225 146.386 189.564 146.122 189.992 145.929C190.424 145.737 190.913 145.641 191.459 145.641C192.228 145.641 192.831 145.81 193.27 146.147C193.711 146.484 194.025 146.929 194.21 147.482ZM201.628 153.511L198.796 143.153H200.07L202.235 151.589H202.336L204.541 143.153H205.957L208.162 151.589H208.263L210.428 143.153H211.702L208.87 153.511H207.575L205.289 145.257H205.208L202.922 153.511H201.628ZM215.352 153.673C214.604 153.673 213.958 153.507 213.415 153.177C212.876 152.843 212.459 152.378 212.166 151.781C211.876 151.181 211.731 150.483 211.731 149.687C211.731 148.892 211.876 148.19 212.166 147.583C212.459 146.973 212.867 146.498 213.39 146.157C213.916 145.813 214.53 145.641 215.231 145.641C215.635 145.641 216.035 145.709 216.43 145.844C216.824 145.978 217.183 146.198 217.507 146.501C217.83 146.801 218.088 147.199 218.281 147.695C218.473 148.19 218.569 148.8 218.569 149.525V150.031H212.581V148.999H217.355C217.355 148.561 217.267 148.17 217.092 147.826C216.92 147.482 216.674 147.211 216.354 147.012C216.037 146.813 215.662 146.713 215.231 146.713C214.755 146.713 214.344 146.831 213.997 147.067C213.653 147.3 213.388 147.604 213.203 147.978C213.017 148.352 212.925 148.753 212.925 149.181V149.869C212.925 150.456 213.026 150.953 213.228 151.361C213.434 151.766 213.719 152.074 214.083 152.287C214.447 152.496 214.87 152.6 215.352 152.6C215.666 152.6 215.949 152.557 216.202 152.469C216.458 152.378 216.679 152.243 216.864 152.064C217.05 151.882 217.193 151.656 217.294 151.387L218.447 151.71C218.326 152.101 218.122 152.445 217.836 152.742C217.549 153.035 217.195 153.265 216.773 153.43C216.352 153.592 215.878 153.673 215.352 153.673ZM223.357 153.673C222.608 153.673 221.963 153.507 221.42 153.177C220.88 152.843 220.464 152.378 220.17 151.781C219.881 151.181 219.736 150.483 219.736 149.687C219.736 148.892 219.881 148.19 220.17 147.583C220.464 146.973 220.872 146.498 221.394 146.157C221.92 145.813 222.534 145.641 223.235 145.641C223.64 145.641 224.039 145.709 224.434 145.844C224.828 145.978 225.188 146.198 225.511 146.501C225.835 146.801 226.093 147.199 226.285 147.695C226.477 148.19 226.573 148.8 226.573 149.525V150.031H220.585V148.999H225.36C225.36 148.561 225.272 148.17 225.097 147.826C224.925 147.482 224.678 147.211 224.358 147.012C224.041 146.813 223.667 146.713 223.235 146.713C222.76 146.713 222.349 146.831 222.001 147.067C221.657 147.3 221.393 147.604 221.207 147.978C221.022 148.352 220.929 148.753 220.929 149.181V149.869C220.929 150.456 221.03 150.953 221.233 151.361C221.438 151.766 221.723 152.074 222.087 152.287C222.451 152.496 222.875 152.6 223.357 152.6C223.67 152.6 223.954 152.557 224.206 152.469C224.463 152.378 224.683 152.243 224.869 152.064C225.054 151.882 225.198 151.656 225.299 151.387L226.452 151.71C226.331 152.101 226.127 152.445 225.84 152.742C225.553 153.035 225.199 153.265 224.778 153.43C224.356 153.592 223.883 153.673 223.357 153.673ZM229.217 150.679L229.197 149.202H229.439L232.838 145.742H234.315L230.694 149.404H230.592L229.217 150.679ZM228.104 153.511V143.153H229.298V153.511H228.104ZM233.04 153.511L230.006 149.667L230.855 148.838L234.558 153.511H233.04Z" fill="#A1A1A1"/>
</svg>
