<svg width="950" height="149" viewBox="0 0 950 149" fill="none" xmlns="http://www.w3.org/2000/svg">
<rect width="153" height="149" rx="31.9286" fill="#111218"/>
<rect x="23.2852" y="21.2857" width="106.429" height="106.429" rx="31.9286" fill="#DEDFE3"/>
<path d="M64.8036 68.5721V68.0748C64.8036 66.8141 65.8185 65.7686 67.1266 65.6817L76.6549 65.0489L89.8318 84.3517V67.4102L86.4401 66.9604V66.7242C86.4401 65.4487 87.4783 64.3963 88.8031 64.3287L97.4728 63.8869V65.1281C97.4728 65.7107 97.0373 66.2091 96.4404 66.3095L94.3541 66.6606V94.0967L91.7357 94.9925C89.5482 95.7408 87.113 94.9398 85.8607 93.06L73.0683 73.8569V92.1852L77.0058 92.9348L76.951 93.2981C76.7791 94.4362 75.7914 95.2969 74.5966 95.3498L64.8036 95.7834C64.6741 94.5596 65.5961 93.4647 66.8681 93.3318L68.1562 93.1972V68.7595L64.8036 68.5721Z" fill="black"/>
<path fill-rule="evenodd" clip-rule="evenodd" d="M88.0052 42.5897L48.7449 45.2562C46.3932 45.4159 44.5703 47.2967 44.5703 49.5633V87.5501C44.5703 89.6798 45.3073 91.749 46.6651 93.4317L55.1302 103.922C56.4988 105.618 58.6527 106.552 60.881 106.416L104.456 103.748C106.689 103.611 108.427 101.829 108.427 99.6779V56.4905C108.427 55.1594 107.752 53.9121 106.617 53.1491L92.8232 43.8715C91.4175 42.926 89.7165 42.4735 88.0052 42.5897ZM50.6917 50.1559C50.1457 49.7537 50.4056 48.9159 51.0915 48.8669L88.2693 46.2142C89.4538 46.1297 90.6309 46.4542 91.5888 47.1293L99.0483 52.3867C99.3315 52.5863 99.1986 53.0172 98.848 53.0361L59.4769 55.1662C58.2854 55.2307 57.1093 54.8825 56.162 54.1847L50.6917 50.1559ZM57.6302 61.8439C57.6302 60.5715 58.6635 59.5205 59.9849 59.4489L101.611 57.1937C102.899 57.1239 103.983 58.1091 103.983 59.3492V96.7449C103.983 98.0149 102.954 99.0649 101.635 99.1395L60.2719 101.481C58.8388 101.562 57.6302 100.466 57.6302 99.0861V61.8439Z" fill="black"/>
<rect x="199" width="153" height="149" rx="31.9286" fill="#111218"/>
<path d="M303.437 71.8391C307.111 71.8391 310.089 68.8613 310.089 65.1879C310.089 61.5146 307.111 58.5367 303.437 58.5367C299.764 58.5367 296.785 61.5148 296.785 65.1885V71.8391H303.437ZM284.812 71.8391C288.486 71.8391 291.464 68.861 291.464 65.1874V46.5635C291.464 42.8898 288.486 39.9117 284.812 39.9117C281.138 39.9117 278.16 42.8898 278.16 46.5635V65.1873C278.16 68.861 281.138 71.8391 284.812 71.8391Z" fill="#2EB67D"/>
<path d="M247.563 77.1611C243.889 77.1611 240.911 80.139 240.911 83.8123C240.911 87.4857 243.889 90.4635 247.563 90.4635C251.236 90.4635 254.215 87.4854 254.215 83.8117V77.1611H247.563ZM266.188 77.1611C262.514 77.1611 259.536 80.1392 259.536 83.8129V102.437C259.536 106.11 262.514 109.089 266.188 109.089C269.862 109.089 272.84 106.11 272.84 102.437V83.8129C272.84 80.1392 269.862 77.1611 266.188 77.1611Z" fill="#E01E5A"/>
<path d="M278.161 102.438C278.161 106.112 281.138 109.089 284.812 109.089C288.485 109.089 291.463 106.111 291.463 102.438C291.463 98.7642 288.485 95.7858 284.811 95.7858L278.161 95.7858L278.161 102.438ZM278.161 83.8126C278.161 87.4863 281.139 90.4644 284.812 90.4644L303.436 90.4644C307.11 90.4644 310.088 87.4863 310.088 83.8126C310.088 80.1389 307.11 77.1608 303.436 77.1608L284.812 77.1608C281.139 77.1608 278.161 80.1389 278.161 83.8126Z" fill="#ECB22E"/>
<path d="M272.838 46.5621C272.838 42.8887 269.86 39.9109 266.186 39.9109C262.513 39.9109 259.535 42.889 259.535 46.5624C259.535 50.2361 262.513 53.2144 266.187 53.2144L272.838 53.2144L272.838 46.5621ZM272.838 65.1876C272.838 61.514 269.859 58.5359 266.186 58.5359L247.562 58.5359C243.888 58.5359 240.91 61.514 240.91 65.1876C240.91 68.8613 243.888 71.8394 247.562 71.8394L266.186 71.8394C269.859 71.8394 272.838 68.8613 272.838 65.1876Z" fill="#36C5F0"/>
<rect x="398" width="154" height="149" rx="31.9286" fill="#111218"/>
<path d="M481.738 81.2556C477.406 82.886 472.551 82.889 468.219 81.2566C466.587 76.9288 466.586 72.0748 468.216 67.7464C472.548 66.1133 477.407 66.113 481.739 67.7461C483.37 72.0733 483.37 76.9284 481.738 81.2556ZM506.484 69.179H487.834L501.02 55.9997C498.951 53.0944 496.396 50.5423 493.489 48.474L480.302 61.6533V43.0153C476.782 42.4236 473.173 42.4245 469.653 43.0153V61.6533L456.466 48.474C453.56 50.5409 451.004 53.0966 448.934 55.9997L462.123 69.179H443.474C443.013 72.8019 442.864 76.2067 443.474 79.822H462.123L448.935 93.0013C451.009 95.9109 453.555 98.4546 456.466 100.528L469.653 87.3477V105.987C473.173 106.576 476.782 106.577 480.302 105.987V87.3477L493.49 100.528C496.398 98.4576 498.949 95.9076 501.02 93.0013L487.832 79.822H506.484C507.075 76.3077 507.075 72.6933 506.484 69.179Z" fill="#FF4A00"/>
<rect x="598" width="153" height="149" rx="31.9286" fill="#111218"/>
<path d="M662.81 53.9888C662.81 54.73 662.75 55.9654 662.038 56.7684C661.266 57.5096 660.079 57.5714 659.367 57.5714C655.359 57.5714 649.8 56.5497 646.009 58.1273C651.794 47.5968 663.001 40.5993 662.928 41.2028C662.394 45.3697 662.81 49.7976 662.81 53.9888ZM674.801 101.798C674.801 96.6708 678.838 92.4705 683.825 92.4705C685.309 92.4705 686.496 93.7059 686.496 95.2501C686.496 96.3002 685.962 97.1649 685.131 97.6591C684.226 98.2242 682.972 97.9605 682.163 98.7091C681.569 99.2033 681.094 100.006 681.094 100.871C681.094 101.798 681.45 102.662 682.044 103.28C683.113 104.392 684.537 105.01 686.081 105.01C690.118 105.01 693.383 101.612 693.383 97.412C693.383 93.6441 690.949 90.3086 687.743 88.8262C682.878 86.2952 675.434 87.7355 674.861 79.808C673.969 84.001 672 91.4822 666.668 91.4822C650.562 92.4778 644.757 79.2425 643.635 65.2307C643.635 62.204 645.416 60.1657 647.672 59.8568C651.708 59.8568 655.745 59.8568 659.782 59.8568C661.86 59.8568 663.047 59.3009 663.819 58.5597C664.828 57.5714 665.066 56.1507 665.066 54.483C665.066 50.1386 665.066 43.4579 665.066 41.4498C665.066 38.8273 667.321 37.2496 670.23 37.2496C671.944 37.2496 673.552 37.3107 675.217 37.7437C678.838 38.6702 679.61 42.4999 679.61 42.4999C679.61 42.4999 686.437 43.7353 689.88 44.3529C693.145 44.9706 701.219 45.5265 702.762 53.9888C706.384 74.1253 704.187 93.6441 704.009 93.6441C701.456 112.669 686.259 111.742 686.259 111.742C680.735 111.742 674.801 107.918 674.801 101.798ZM692.611 68.9985C690.652 68.8132 688.99 69.6162 688.396 71.1604C687.555 73.3487 696.232 75.1684 696.232 72.1487C695.995 70.4192 694.57 69.2456 692.611 68.9985Z" fill="#00A82D"/>
<rect x="797" width="153" height="149" rx="31.9286" fill="#111218"/>
<path fill-rule="evenodd" clip-rule="evenodd" d="M873.5 74.5003C873.5 68.1326 878.861 62.9706 885.473 62.9706C892.086 62.9706 897.446 68.1326 897.446 74.5003C897.446 80.8681 892.086 86.0301 885.473 86.0301C878.861 86.0301 873.5 80.8681 873.5 74.5003Z" fill="#1ABCFE"/>
<path fill-rule="evenodd" clip-rule="evenodd" d="M849.553 97.5597C849.553 91.192 854.913 86.03 861.526 86.03H873.499V97.5597C873.499 103.927 868.139 109.089 861.526 109.089C854.913 109.089 849.553 103.927 849.553 97.5597Z" fill="#0ACF83"/>
<path fill-rule="evenodd" clip-rule="evenodd" d="M873.5 39.9108V62.9704H885.473C892.086 62.9704 897.446 57.8083 897.446 51.4406C897.446 45.0729 892.086 39.9108 885.473 39.9108H873.5Z" fill="#FF7262"/>
<path fill-rule="evenodd" clip-rule="evenodd" d="M849.553 51.4405C849.553 57.8082 854.913 62.9703 861.526 62.9703H873.499V39.9108H861.526C854.913 39.9108 849.553 45.0728 849.553 51.4405Z" fill="#F24E1E"/>
<path fill-rule="evenodd" clip-rule="evenodd" d="M849.553 74.5C849.553 80.8677 854.913 86.0298 861.526 86.0298H873.499V62.9703H861.526C854.913 62.9703 849.553 68.1323 849.553 74.5Z" fill="#A259FF"/>
</svg>
