<svg width="57" height="57" viewBox="0 0 57 57" fill="none" xmlns="http://www.w3.org/2000/svg">
<g clip-path="url(#clip0_1021_905)">
<path d="M43.962 18.1384C43.5846 17.7717 43.0551 17.605 42.5371 17.6902C42.018 17.7751 41.5697 18.101 41.3289 18.5686C40.5008 20.1774 39.4489 21.6558 38.2114 22.9628C38.3348 22.0187 38.3968 21.0689 38.3968 20.1166C38.3968 18.2894 38.152 16.4091 37.6687 14.5272C36.08 8.34597 31.9139 3.11858 26.239 0.185486C25.7449 -0.0697925 25.1562 -0.0608295 24.6701 0.209387C24.184 0.479714 23.8657 0.975331 23.8221 1.52971C23.3797 7.14693 20.4863 12.2574 15.8795 15.554C15.8185 15.5979 15.758 15.6424 15.6975 15.6866C15.5721 15.7784 15.4539 15.8651 15.3435 15.9379C15.3262 15.9494 15.3091 15.9612 15.2922 15.9732C12.3949 18.0476 10.0042 20.8129 8.37838 23.9708C6.72632 27.183 5.88867 30.63 5.88867 34.2157C5.88867 36.0424 6.13355 37.9227 6.61655 39.8049C9.16546 49.7258 18.0934 56.6547 28.3278 56.6547C40.7001 56.6547 50.7656 46.5885 50.7656 34.2157C50.7656 28.1143 48.3494 22.4045 43.962 18.1384Z" fill="#45B3BA"/>
<circle cx="27.7082" cy="35.8021" r="6.66526" fill="#292929"/>
</g>
<defs>
<clipPath id="clip0_1021_905">
<rect width="56.6547" height="56.6547" fill="white"/>
</clipPath>
</defs>
</svg>
